# xmcd
# 
# Track frame offsets:
#     150
#     12946
#     38943
#     55326
#     79669
# 
# Disc length: 1361
# 
# Revision: 0
# Processed by: cddbd v1.5.2PL0 Copyright (c) Steve Scherf et al.
# Submitted via: fre:ac v1.0.17
# 
DISCID=35054f05
DTITLE=Farm AG - Promo #3
DYEAR=2016
DGENRE=Alt. Rock
TTITLE0=Die Brillen von Bob Dylan
TTITLE1=Spätsommerblues
TTITLE2=Kinski
TTITLE3=Angeber
TTITLE4=Blind Willie
EXTD=
EXTT0=
EXTT1=
EXTT2=
EXTT3=
EXTT4=
PLAYORDER=
